<?xml version="1.0" encoding="UTF-8" standalone="no"?>
<svg
   xmlns:dc="http://purl.org/dc/elements/1.1/"
   xmlns:cc="http://creativecommons.org/ns#"
   xmlns:rdf="http://www.w3.org/1999/02/22-rdf-syntax-ns#"
   xmlns:svg="http://www.w3.org/2000/svg"
   xmlns="http://www.w3.org/2000/svg"
   xmlns:sodipodi="http://sodipodi.sourceforge.net/DTD/sodipodi-0.dtd"
   xmlns:inkscape="http://www.inkscape.org/namespaces/inkscape"
   width="144.23337mm"
   height="144.23337mm"
   viewBox="0 0 144.23337 144.23337"
   version="1.1"
   id="svg1712"
   inkscape:version="1.0.2-2 (e86c870879, 2021-01-15)"
   sodipodi:docname="nicolas-duflot-avatar.svg">
  <defs
     id="defs1706" />
  <sodipodi:namedview
     id="base"
     pagecolor="#ffffff"
     bordercolor="#666666"
     borderopacity="1.0"
     inkscape:pageopacity="0.0"
     inkscape:pageshadow="2"
     inkscape:zoom="1.4142136"
     inkscape:cx="175.13165"
     inkscape:cy="219.01605"
     inkscape:document-units="mm"
     inkscape:current-layer="g981"
     inkscape:document-rotation="0"
     showgrid="false"
     inkscape:window-width="1920"
     inkscape:window-height="1001"
     inkscape:window-x="-9"
     inkscape:window-y="-9"
     inkscape:window-maximized="1" />
  <metadata
     id="metadata1709">
    <rdf:RDF>
      <cc:Work
         rdf:about="">
        <dc:format>image/svg+xml</dc:format>
        <dc:type
           rdf:resource="http://purl.org/dc/dcmitype/StillImage" />
        <dc:title />
      </cc:Work>
    </rdf:RDF>
  </metadata>
  <g
     inkscape:label="Calque 1"
     inkscape:groupmode="layer"
     id="layer1"
     transform="translate(-69.461075,-35.83189)"
     style="display:none"
     sodipodi:insensitive="true">
    <rect
       style="fill:#e64022;fill-opacity:1;stroke-width:0.264999"
       id="rect970"
       width="144.23337"
       height="144.23337"
       x="69.461075"
       y="35.83189" />
  </g>
  <g
     inkscape:groupmode="layer"
     id="layer2"
     inkscape:label="Calque 2"
     transform="translate(18.976135,2.3858459)"
     sodipodi:insensitive="true">
    <path
       style="display:inline;fill:#ffa57a;fill-opacity:1;stroke:none;stroke-width:0.534475px;stroke-linecap:butt;stroke-linejoin:miter;stroke-opacity:1"
       d="m 84.664211,100.14219 c 0,0 -13.07558,-2.481486 -16.89326,-8.017126 -3.81768,-5.53564 -2.29061,-20.90181 -2.29061,-20.90181 0,0 -2.57694,3.14959 -8.20801,2.67238 -5.6311,-0.47721 -15.93882,-5.34476 -15.93882,-5.34476 l 2.48149,4.77211 c 0,0 2.05305,7.66098 -0.95442,15.46161 -3.05416,7.92169 -7.85012,8.54206 -7.85012,8.54206 l 7.3729,9.401046 z"
       id="path97"
       sodipodi:nodetypes="cscsccsccc" />
    <path
       style="display:inline;fill:#e99771;fill-opacity:1;stroke:none;stroke-width:0.534475px;stroke-linecap:butt;stroke-linejoin:miter;stroke-opacity:1"
       d="m 73.524016,43.831384 c 0,0 4.81846,-0.380968 5.89827,1.339968 1.07981,1.720935 2.73325,3.711825 0.43866,9.077099 -2.29457,5.365273 -6.07389,4.217985 -6.07389,4.217985 l -3.77932,-1.484732 z"
       id="path91" />
    <path
       style="display:inline;fill:#e99771;fill-opacity:1;stroke:none;stroke-width:0.534475px;stroke-linecap:butt;stroke-linejoin:miter;stroke-opacity:1"
       d="m 38.406643,45.57628 c 0,0 -2.02463,-2.294582 -4.38671,-1.687195 -2.36207,0.607389 -5.70271,1.889656 -4.11675,8.840893 1.58597,6.951234 5.66896,6.073894 7.52488,5.56774 1.85591,-0.50616 3.91428,-2.159607 3.91428,-2.159607 z"
       id="path93" />
    <path
       id="path97-1"
       style="display:inline;fill:#e99771;fill-opacity:1;stroke:none;stroke-width:0.534475px;stroke-linecap:butt;stroke-linejoin:miter;stroke-opacity:1"
       d="m 41.333351,68.550424 2.48134,4.77271 c 0,0 0.94556,3.54315 0.60859,8.26036 0.52004,0.40945 9.09552,7.12206 14.4632,8.36579 2.06148,0.47766 5.1809,0.85158 8.28437,1.13368 -3.04584,-6.20025 -1.69007,-19.86016 -1.69007,-19.86016 0,0 -2.5771,3.14959 -8.20817,2.67238 -5.63109,-0.47721 -15.93926,-5.34476 -15.93926,-5.34476 z" />
    <path
       style="display:inline;fill:#ffa57a;fill-opacity:1;stroke:none;stroke-width:0.521994px;stroke-linecap:butt;stroke-linejoin:miter;stroke-opacity:1"
       d="m 77.107771,19.085664 c 0,0 2.05837,30.190713 0.3037,36.627965 -1.75469,6.437251 -5.70273,23.4316 -21.69732,23.30285 -15.99459,-0.128749 -22.27093,-15.96438 -22.60837,-28.259534 -0.33745,-12.295152 4.3867,-32.572499 4.3867,-32.572499 z"
       id="path95" />
    <ellipse
       style="display:inline;fill:#57413f;fill-opacity:1;fill-rule:evenodd;stroke-width:0.844533"
       id="path31"
       cx="65.331154"
       cy="48.090195"
       rx="1.5522176"
       ry="3.3237705" />
    <ellipse
       style="display:inline;fill:#57413f;fill-opacity:1;fill-rule:evenodd;stroke-width:0.844533"
       id="path31-3"
       cx="44.544926"
       cy="48.107071"
       rx="1.5522176"
       ry="3.3237705" />
    <path
       style="display:inline;fill:#57413f;fill-opacity:1;stroke:none;stroke-width:0.534475px;stroke-linecap:butt;stroke-linejoin:miter;stroke-opacity:1"
       d="m 39.247151,42.100661 c 0,0 1.65346,-3.273154 4.58916,-3.340642 2.93572,-0.06749 5.43276,2.598276 5.90517,3.948031 0.47244,1.349753 -2.53077,-2.63202 -5.77019,-2.294584 -3.23942,0.337442 -4.72414,1.687195 -4.72414,1.687195 z"
       id="path53" />
    <path
       style="display:inline;fill:#57413f;fill-opacity:1;stroke:none;stroke-width:0.534475px;stroke-linecap:butt;stroke-linejoin:miter;stroke-opacity:1"
       d="m 59.932151,42.100661 c 0,0 1.28225,-3.138179 4.72414,-3.374386 3.44187,-0.23621 5.97265,3.846798 5.97265,3.846798 0,0 -3.40814,-2.260836 -5.73644,-2.058371 -2.32833,0.202459 -4.96035,1.585959 -4.96035,1.585959 z"
       id="path55" />
    <path
       style="display:inline;fill:#69413f;fill-opacity:1;stroke:none;stroke-width:0.534475px;stroke-linecap:butt;stroke-linejoin:miter;stroke-opacity:1"
       d="m 57.176881,48.102415 c 0,0 0.0477,4.008567 0.33406,5.46406 0.28632,1.455489 0.42948,3.483633 0.42948,3.483633 l -2.38606,3.10187 3.19732,-2.767824 c 0,0 -0.0238,-2.529213 -0.45336,-4.557354 -0.42949,-2.028143 -1.12144,-4.724385 -1.12144,-4.724385 z"
       id="path57" />
    <path
       style="display:inline;fill:#69413f;fill-opacity:1;stroke:none;stroke-width:0.534475px;stroke-linecap:butt;stroke-linejoin:miter;stroke-opacity:1"
       d="m 62.834111,65.147724 c 0,0 -3.61058,2.02463 -6.51257,1.95714 -2.90196,-0.0675 -7.22118,-1.75468 -7.22118,-1.75468 0,0 2.49704,2.73325 6.71504,2.767 4.21797,0.0337 7.01871,-2.96946 7.01871,-2.96946 z"
       id="path59" />
    <path
       style="fill:#000000;fill-opacity:1;stroke:none;stroke-width:0.534475px;stroke-linecap:butt;stroke-linejoin:miter;stroke-opacity:1"
       d="m 38.032381,94.268674 c 0,0 7.42364,5.26404 17.07438,4.99409 9.65076,-0.26995 17.95175,-3.71182 17.95175,-3.71182 0,0 27.399979,9.313296 33.811319,16.601976 6.41135,7.28867 9.9207,29.69459 9.9207,29.69459 L -8.4666668,141.64504 c 0,0 4.4494239,-23.21159 10.1231599,-29.82957 C 9.3716713,102.8163 38.032381,94.268674 38.032381,94.268674 Z"
       id="path857"
       sodipodi:nodetypes="cscsccsc" />
    <g
       id="g1665"
       style="fill:#ff0000;fill-opacity:1"
       transform="matrix(0.23459447,-0.40632954,0.40632954,0.23459447,-13.806807,59.217494)">
      <path
         id="path1432"
         style="fill:#e64022;fill-opacity:1;stroke:none;stroke-width:0.535315"
         d="m -44.541273,167.14936 a 4.5334978,4.5334978 45 0 0 -4.480407,4.53364 4.5334978,4.5334978 45 0 0 0.0053,0.21504 c 1.351208,-0.79301 2.919465,-1.2558 4.599414,-1.2558 1.621326,0 3.140621,0.42779 4.45953,1.17021 a 4.5334978,4.5334978 45 0 0 0.002,-0.12945 4.5334978,4.5334978 45 0 0 -4.533651,-4.53364 4.5334978,4.5334978 45 0 0 -0.0522,0 z" />
      <path
         id="rect1480"
         style="fill:#e64022;fill-opacity:1;stroke:none;stroke-width:0.535315"
         d="m -47.967349,213.72492 h 7.127011 l -0.404926,4.23824 h -6.317159 z"
         sodipodi:nodetypes="ccccc" />
      <path
         id="rect1483"
         style="fill:#e64022;fill-opacity:1;stroke:none;stroke-width:0.535315"
         d="m -44.473118,151.2728 1.067758,14.54514 h -2.179808 z"
         sodipodi:nodetypes="cccc" />
      <path
         id="path1486"
         style="fill:#e64022;fill-opacity:1;stroke:none;stroke-width:0.974873"
         d="m -37.214602,202.70062 c -0.756688,3.72992 -1.626617,7.26024 -2.583649,9.95565 2.34046,2.62617 2.749109,4.81675 2.749478,7.25196 -4.99e-4,3.84279 -0.601735,7.66189 -1.781931,11.31898 5.076948,-3.75417 6.044075,-9.69397 6.044313,-16.00817 2.73e-4,-0.0602 2.73e-4,-0.1204 0,-0.1806 -0.04113,-4.49454 -1.601829,-8.84294 -4.428211,-12.33782 z"
         sodipodi:nodetypes="ccccccc" />
      <path
         id="path1429"
         style="fill:#e64022;fill-opacity:1;stroke:none;stroke-width:0.535315"
         d="m -44.417049,171.71118 c -5.031782,0 -9.11114,4.07935 -9.11114,9.11114 5e-6,3.77231 2.292928,22.62978 5.560844,31.83365 h 7.100593 c 3.267918,-9.20387 5.560843,-28.06134 5.560843,-31.83365 -4e-6,-5.03179 -4.079358,-9.11114 -9.11114,-9.11114 z" />
      <path
         id="path1486-8"
         style="fill:#e64022;fill-opacity:1;stroke:none;stroke-width:0.974873"
         d="m -51.615011,202.70062 c 0.756688,3.72992 1.626617,7.26024 2.583649,9.95565 -2.34046,2.62617 -2.749109,4.81675 -2.749478,7.25196 4.99e-4,3.84279 0.601735,7.66189 1.781931,11.31898 -5.076948,-3.75417 -6.044075,-9.69397 -6.044313,-16.00817 -2.73e-4,-0.0602 -2.73e-4,-0.1204 0,-0.1806 0.04113,-4.49454 1.601829,-8.84294 4.428211,-12.33782 z"
         sodipodi:nodetypes="ccccccc" />
    </g>
    <g
       id="g986"
       transform="matrix(1,0,0,0.83794763,0,8.4301792)">
      <path
         style="display:inline;fill:#6c413f;fill-opacity:1;stroke:none;stroke-width:0.535317;stroke-linecap:butt;stroke-linejoin:miter;stroke-miterlimit:4;stroke-dasharray:none;stroke-opacity:1"
         d="m 33.139521,51.987615 1.51848,0.03371 0.97856,-14.712321 c 0,0 1.95714,-2.092125 2.39582,-4.690397 0.43866,-2.598279 0.3037,-6.512569 0.3037,-6.512569 0,0 5.63521,1.65345 12.21527,0.809854 6.58006,-0.843595 14.64482,-3.374385 14.64482,-3.374385 0,0 1.04607,4.791627 2.93572,6.546306 1.88967,1.754683 6.14139,3.678084 6.14139,3.678084 l 1.21478,17.209368 2.19335,-0.168716 c 0,0 1.61971,-33.305196 0.0337,-37.21948 -1.58597,-3.91429 -5.97266,-9.886954 -8.7734,-11.709123 -1.53446,-1.283166 -6.02236,-2.038228 -3.17193,1.349755 0,0 -5.57932,-3.516146 -9.83624,-3.208647 -4.01292,0.645212 -0.10545,3.577109 2.17638,4.963328 0,0 -6.1312,-3.128588 -11.15902,-4.579573 -4.63256,-1.411342 -1.42457,1.354644 -0.7188,3.837225 0,0 -3.99295,-1.801993 -6.32125,-2.341894 -4.46497,-0.05385 -3.93291,5.427307 -3.90313,8.314554 0,0 -2.16513,-4.316976 -4.61953,-2.707695 -3.1391,2.343485 -2.9121,6.960243 -2.50043,9.625187 0.68316,4.171994 3.3069,7.963553 3.3069,7.963553 z"
         id="path29"
         sodipodi:nodetypes="cccscscscccscccccccccccc" />
      <path
         id="path29-4"
         style="display:inline;mix-blend-mode:normal;fill:#57413f;fill-opacity:1;stroke:none;stroke-width:0.534475px;stroke-linecap:butt;stroke-linejoin:miter;stroke-opacity:1"
         d="m 70.801531,3.44776 c -0.92313,4.59504 -2.67089,9.650799 -5.98883,13.373372 -1.60221,1.797598 -3.94429,4.895048 -6.62458,8.627815 3.9138,-0.938758 7.00769,-1.907202 7.00769,-1.907202 0,0 1.04684,4.791601 2.93649,6.54628 1.88967,1.754683 6.14124,3.677649 6.14124,3.677649 l 1.21406,17.209696 2.19381,-0.168817 c 0,0 1.61983,-33.305131 0.0339,-37.219411 -1.26512,-3.122391 -4.31096,-7.548943 -6.91373,-10.13938 z"
         sodipodi:nodetypes="csccscccsc" />
      <path
         style="fill:#57413f;fill-opacity:1;stroke:none;stroke-width:0.264583px;stroke-linecap:butt;stroke-linejoin:miter;stroke-opacity:1"
         d="m 51.248932,5.0977007 c 5.632916,1.7117171 8.335541,1.1795685 11.693043,6.6149213 0.278087,-4.9855125 -0.820325,-6.4355088 -5.011306,-9.1539817 5.51711,1.4091334 6.137816,1.1600928 8.886714,6.4812859 1.818944,-3.6351171 1.872843,-4.1307847 -0.601358,-7.2830946 0,0 3.94527,1.2235329 3.274052,4.6772167 -0.949998,4.8881167 -4.142677,8.0180857 -7.283093,11.4925897 -3.140419,3.474504 -11.225321,7.216277 -15.368,7.149459 C 33.643861,25.259904 27.879785,17.655871 33.341874,8.8394741 33.232721,19.612747 34.327765,19.657672 45.235368,22.537037 38.017436,17.885191 34.818565,13.370275 38.687264,4.09544 c -0.810262,8.28479 6.276658,19.132624 13.430295,16.637528 6.347649,-2.405426 13.029388,-8.41899 -0.868627,-15.6352673 z"
         id="path972"
         sodipodi:nodetypes="cccccsscccccc" />
    </g>
    <g
       id="g1113"
       transform="matrix(1.0140464,-0.21082919,0.15002688,0.72159945,-8.9659343,29.695904)"
       style="opacity:0.8">
      <path
         style="fill:#e99771;fill-opacity:1;stroke:none;stroke-width:0.222657px;stroke-linecap:butt;stroke-linejoin:miter;stroke-opacity:1"
         d="m 72.877705,48.261316 c 0,0 0.170384,1.903188 -3.617784,5.619712 -3.39583,3.331607 -7.614442,2.591645 -7.614442,2.591645 0,0 3.115677,1.90492 7.893238,-2.361825 4.968724,-4.437471 3.338988,-5.849532 3.338988,-5.849532 z"
         id="path974"
         sodipodi:nodetypes="cscsc" />
      <path
         style="fill:#e99771;fill-opacity:1;stroke:none;stroke-width:0.344958px;stroke-linecap:butt;stroke-linejoin:miter;stroke-opacity:1"
         d="m 71.678347,49.514555 c 0,0 0.745799,0.02098 1.0396,0.335799 0.293801,0.314814 0.4972,1.301225 0.4972,1.301225 0,0 -0.0904,-0.587647 -0.632801,-1.007397 -0.5424,-0.419752 -0.903999,-0.629627 -0.903999,-0.629627 z"
         id="path976" />
      <path
         style="fill:#e99771;fill-opacity:1;stroke:none;stroke-width:0.344958px;stroke-linecap:butt;stroke-linejoin:miter;stroke-opacity:1"
         d="m 71.310852,50.466704 c 0,0 0.745799,0.02098 1.0396,0.335799 0.293801,0.314814 0.4972,1.301225 0.4972,1.301225 0,0 -0.0904,-0.587647 -0.632801,-1.007397 -0.5424,-0.419752 -0.903999,-0.629627 -0.903999,-0.629627 z"
         id="path976-1" />
      <path
         style="fill:#e99771;fill-opacity:1;stroke:none;stroke-width:0.344958px;stroke-linecap:butt;stroke-linejoin:miter;stroke-opacity:1"
         d="m 70.759609,51.168287 c 0,0 0.745799,0.02098 1.0396,0.335799 0.293801,0.314814 0.4972,1.301225 0.4972,1.301225 0,0 -0.0904,-0.587647 -0.632801,-1.007397 -0.5424,-0.419752 -0.903999,-0.629627 -0.903999,-0.629627 z"
         id="path976-5" />
      <path
         style="fill:#e99771;fill-opacity:1;stroke:none;stroke-width:0.344958px;stroke-linecap:butt;stroke-linejoin:miter;stroke-opacity:1"
         d="m 70.157652,51.920766 c 0,0 0.722729,0.185254 0.939705,0.55721 0.216978,0.371951 0.197391,1.378924 0.197391,1.378924 0,0 0.04168,-0.593097 -0.394564,-1.122321 -0.436245,-0.529226 -0.742532,-0.813813 -0.742532,-0.813813 z"
         id="path976-7" />
      <path
         style="fill:#e99771;fill-opacity:1;stroke:none;stroke-width:0.344958px;stroke-linecap:butt;stroke-linejoin:miter;stroke-opacity:1"
         d="m 69.547326,52.474024 c 0,0 0.702674,0.25081 0.884593,0.641111 0.181921,0.390297 0.06999,1.391221 0.06999,1.391221 0,0 0.09595,-0.586767 -0.289883,-1.153799 -0.385826,-0.567034 -0.664699,-0.878533 -0.6647,-0.878533 z"
         id="path976-8" />
      <path
         style="fill:#e99771;fill-opacity:1;stroke:none;stroke-width:0.344958px;stroke-linecap:butt;stroke-linejoin:miter;stroke-opacity:1"
         d="m 68.783448,53.215 c 0,0 0.713326,0.218686 0.912758,0.600337 0.199433,0.381644 0.133008,1.386616 0.133008,1.386616 0,0 0.06924,-0.590515 -0.34191,-1.139467 C 69.07616,53.513533 68.783448,53.215001 68.783448,53.215 Z"
         id="path976-4" />
      <path
         style="fill:#e99771;fill-opacity:1;stroke:none;stroke-width:0.344958px;stroke-linecap:butt;stroke-linejoin:miter;stroke-opacity:1"
         d="m 67.876798,53.880556 c 0,0 0.724436,0.17846 0.944895,0.548362 0.220461,0.369898 0.210329,1.37701 0.210329,1.37701 0,0 0.03611,-0.593462 -0.405084,-1.118567 -0.441195,-0.525107 -0.75014,-0.806805 -0.75014,-0.806805 z"
         id="path976-47" />
      <path
         style="fill:#e99771;fill-opacity:1;stroke:none;stroke-width:0.344958px;stroke-linecap:butt;stroke-linejoin:miter;stroke-opacity:1"
         d="m 66.993176,54.410573 c 0,0 0.710231,0.228535 0.904364,0.612909 0.194134,0.384368 0.113809,1.388323 0.113809,1.388323 0,0 0.0774,-0.5895 -0.32611,-1.144088 -0.403509,-0.55459 -0.692062,-0.857144 -0.692063,-0.857144 z"
         id="path976-84" />
      <path
         style="fill:#e99771;fill-opacity:1;stroke:none;stroke-width:0.344958px;stroke-linecap:butt;stroke-linejoin:miter;stroke-opacity:1"
         d="m 66.495501,54.91162 c 0,0 0.626015,0.405909 0.713148,0.827619 0.08714,0.421704 -0.252325,1.369936 -0.252325,1.369936 0,0 0.228511,-0.548893 -0.01634,-1.189545 -0.244851,-0.640654 -0.44448,-1.00801 -0.444481,-1.00801 z"
         id="path976-84-6" />
      <path
         style="fill:#e99771;fill-opacity:1;stroke:none;stroke-width:0.344958px;stroke-linecap:butt;stroke-linejoin:miter;stroke-opacity:1"
         d="m 65.384579,55.314672 c 0,0 0.626015,0.405909 0.713148,0.827619 0.08714,0.421704 -0.252325,1.369936 -0.252325,1.369936 0,0 0.228511,-0.548893 -0.01634,-1.189545 -0.244851,-0.640654 -0.44448,-1.00801 -0.444481,-1.00801 z"
         id="path976-84-6-6" />
      <path
         style="fill:#e99771;fill-opacity:1;stroke:none;stroke-width:0.320491px;stroke-linecap:butt;stroke-linejoin:miter;stroke-opacity:1"
         d="m 64.131753,55.76569 c 0,0 0.626015,0.350371 0.713148,0.714381 0.08714,0.364005 -0.252325,1.182496 -0.252325,1.182496 0,0 0.228511,-0.473791 -0.01634,-1.026787 -0.244851,-0.552997 -0.44448,-0.87009 -0.444481,-0.87009 z"
         id="path976-84-6-8" />
    </g>
    <path
       style="opacity:0.8;fill:#e99771;fill-opacity:1;stroke:none;stroke-width:0.219077px;stroke-linecap:butt;stroke-linejoin:miter;stroke-opacity:1"
       d="m 75.670684,51.80305 c 0,0 -1.17415,6.186223 -4.137483,9.251962 -2.963333,3.065738 -6.653523,3.777428 -6.653523,3.777428 0,0 5.381527,-0.615886 7.869608,-4.489118 2.488081,-3.873232 2.921398,-8.540272 2.921398,-8.540272 z"
       id="path1115" />
  </g>
  <g
     inkscape:groupmode="layer"
     id="layer3"
     inkscape:label="bouc">
    <g
       id="g981"
       transform="matrix(1.0557816,0,0,1.0217789,-4.9121731,-1.626884)">
      <path
         id="path882"
         style="fill:#57413f;fill-opacity:1;stroke:none;stroke-width:0.292665px;stroke-linecap:butt;stroke-linejoin:miter;stroke-opacity:1"
         d="m 75.001962,63.526457 c -2.196718,0 -5.26028,0.425 -7.746041,1.039212 -2.606025,0.64393 -5.462885,3.448886 -5.462885,3.448886 0,0 1.849957,-0.141446 2.543654,-0.613918 0.693702,-0.472469 0.462198,0.756028 0.462198,0.756028 0,0 2.485761,-1.511982 4.046582,-1.417486 1.560824,0.09449 4.682922,0.755583 5.434432,-0.142111 0.206499,-0.246668 0.454086,-0.289356 0.751147,-0.232542 0.29706,-0.05681 0.544648,-0.01412 0.751146,0.232542 0.75151,0.897694 3.873607,0.236601 5.434432,0.142111 1.560822,-0.0945 4.046582,1.417486 4.046582,1.417486 0,0 -0.231506,-1.228497 0.462194,-0.756028 0.693697,0.472472 2.543659,0.613918 2.543659,0.613918 0,0 -2.856861,-2.804956 -5.462886,-3.448886 -2.485763,-0.614212 -5.549327,-1.039212 -7.746044,-1.039212 -0.0091,0 -0.02002,10e-4 -0.02908,10e-4 -0.0091,-2.1e-5 -0.02007,-10e-4 -0.02908,-10e-4 z" />
      <path
         id="path929"
         style="fill:#57413f;fill-opacity:1;stroke:none;stroke-width:0.33247px;stroke-linecap:butt;stroke-linejoin:miter;stroke-opacity:1"
         d="m 63.575811,67.071358 c 0,0 -0.751382,3.189138 -0.751382,4.982435 0.755928,20.076748 24.139986,18.767667 24.385118,0.503528 0,-1.793297 -0.751382,-5.485963 -0.751382,-5.485963 l -0.127114,2.010749 c 0,0 -1.906708,-2.282659 -1.231838,-0.749902 0.67487,1.53276 -2.327415,0.912767 -2.45454,2.271326 -0.127128,1.358555 -1.08046,1.738872 -1.271161,0.76071 -0.190696,-0.978154 -1.780334,-0.869382 -1.780334,-0.869382 0,0 0.06392,0.488961 0.06392,1.086728 3e-6,0.597764 -1.525664,2.228414 -2.352007,2.065388 -0.826345,-0.163027 0.318144,-2.119424 0.318144,-2.119424 0,0 -1.907051,1.195218 -2.352006,2.934171 -0.08002,0.312734 -0.166682,0.424214 -0.254232,0.40107 -0.08755,0.02316 -0.174212,-0.08834 -0.254233,-0.40107 -0.444955,-1.738953 -2.352001,-2.934171 -2.352005,-2.934171 0,0 1.144489,1.956397 0.318143,2.119424 -0.826342,0.163026 -2.352005,-1.467624 -2.352002,-2.065388 0,-0.597767 0.0639,-1.086728 0.0639,-1.086728 0,0 -1.589636,-0.108772 -1.780332,0.869382 -0.1907,0.978162 -1.144036,0.597845 -1.271164,-0.76071 -0.127123,-1.358559 -3.129408,-0.738566 -2.454538,-2.271326 0.674866,-1.532757 -1.231835,0.749902 -1.231835,0.749902 z"
         sodipodi:nodetypes="cccccssscsscscscsscssscc" />
      <path
         style="fill:#969696;fill-opacity:1;stroke:none;stroke-width:0.264583px;stroke-linecap:butt;stroke-linejoin:miter;stroke-opacity:1"
         d="m 69.221614,72.760416 c 0,0 -0.837827,0.635377 -1.093068,1.799636 -0.528331,2.985382 -1.837802,2.420016 -1.573517,0.525843 0.05847,-0.972814 0.979865,-2.358552 0.979865,-2.358552 -1.598203,0.949756 -2.258459,2.444933 -2.30347,3.642436 -0.07505,2.153161 0.861359,5.310124 2.349554,6.703831 -1.431715,-5.873899 -0.606626,-4.042723 0.204111,-1.852773 -0.659586,-2.695982 -0.321588,-3.446577 0.692182,-0.924035 -0.721315,-3.144361 0.571751,-6.928769 0.744343,-7.536386 z"
         id="path955"
         sodipodi:nodetypes="ccccccccc" />
      <path
         style="fill:#969696;fill-opacity:1;stroke:none;stroke-width:0.264583px;stroke-linecap:butt;stroke-linejoin:miter;stroke-opacity:1"
         d="m 80.77184,72.760416 c 0,0 0.837827,0.635377 1.093068,1.799636 0.528331,2.985382 1.837802,2.420016 1.573517,0.525843 -0.05847,-0.972814 -0.979865,-2.358552 -0.979865,-2.358552 1.598203,0.949756 2.258459,2.444933 2.30347,3.642436 0.07505,2.153161 -0.861359,5.310124 -2.349554,6.703831 1.431715,-5.873899 0.606626,-4.042723 -0.204111,-1.852773 0.659586,-2.695982 0.321588,-3.446577 -0.692182,-0.924035 0.721315,-3.144361 -0.571751,-6.928769 -0.744343,-7.536386 z"
         id="path955-9"
         sodipodi:nodetypes="ccccccccc" />
    </g>
  </g>
</svg>
